{
	"asset":{
		"generator":"Khronos glTF Blender I/O v4.2.60",
		"version":"2.0"
	},
	"scene":0,
	"scenes":[
		{
			"name":"Scene",
			"nodes":[
				0
			]
		}
	],
	"nodes":[
		{
			"mesh":0,
			"name":"Mesh_0",
			"translation":[
				0,
				1,
				0
			]
		}
	],
	"materials":[
		{
			"doubleSided":true,
			"name":"Material_0",
			"pbrMetallicRoughness":{
				"baseColorTexture":{
					"index":0
				},
				"metallicFactor":0,
				"roughnessFactor":0.800000011920929
			}
		}
	],
	"meshes":[
		{
			"name":"Mesh_0",
			"primitives":[
				{
					"attributes":{
						"POSITION":0,
						"NORMAL":1,
						"TEXCOORD_0":2
					},
					"indices":3,
					"material":0
				}
			]
		}
	],
	"textures":[
		{
			"sampler":0,
			"source":0
		}
	],
	"images":[
		{
			"mimeType":"image/jpeg",
			"name":"Image_0",
			"uri":"Image_0.jpg"
		}
	],
	"accessors":[
		{
			"bufferView":0,
			"componentType":5126,
			"count":26034,
			"max":[
				0.396342009305954,
				1.0005799531936646,
				0.39706000685691833
			],
			"min":[
				-0.40067899227142334,
				-1.0041799545288086,
				-0.40145498514175415
			],
			"type":"VEC3"
		},
		{
			"bufferView":1,
			"componentType":5126,
			"count":26034,
			"type":"VEC3"
		},
		{
			"bufferView":2,
			"componentType":5126,
			"count":26034,
			"type":"VEC2"
		},
		{
			"bufferView":3,
			"componentType":5123,
			"count":150000,
			"type":"SCALAR"
		}
	],
	"bufferViews":[
		{
			"buffer":0,
			"byteLength":312408,
			"byteOffset":0,
			"target":34962
		},
		{
			"buffer":0,
			"byteLength":312408,
			"byteOffset":312408,
			"target":34962
		},
		{
			"buffer":0,
			"byteLength":208272,
			"byteOffset":624816,
			"target":34962
		},
		{
			"buffer":0,
			"byteLength":300000,
			"byteOffset":833088,
			"target":34963
		}
	],
	"samplers":[
		{
			"magFilter":9729,
			"minFilter":9987
		}
	],
	"buffers":[
		{
			"byteLength":1133088,
			"uri":"paperreel.bin"
		}
	]
}
