{
	"asset":{
		"generator":"Khronos glTF Blender I/O v4.2.60",
		"version":"2.0"
	},
	"scene":0,
	"scenes":[
		{
			"name":"Scene",
			"nodes":[
				0,
				1,
				2,
				3
			]
		}
	],
	"nodes":[
		{
			"name":"Floor map"
		},
		{
			"mesh":0,
			"name":"Walls C",
			"rotation":[
				0,
				0,
				-1,
				0
			],
			"scale":[
				-0.04590161144733429,
				-1.3288429975509644,
				-0.048867978155612946
			],
			"translation":[
				-4.735641002655029,
				0,
				8.087032318115234
			]
		},
		{
			"mesh":1,
			"name":"Floor C",
			"scale":[
				1,
				1,
				0.22476541996002197
			],
			"translation":[
				6.465335845947266,
				0,
				5.050755500793457
			]
		},
		{
			"mesh":2,
			"name":"Plane",
			"translation":[
				-3.093203067779541,
				0,
				6.463072776794434
			]
		}
	],
	"materials":[
		{
			"doubleSided":true,
			"name":"Material.002"
		},
		{
			"doubleSided":true,
			"name":"Material.001"
		}
	],
	"meshes":[
		{
			"name":"Plane",
			"primitives":[
				{
					"attributes":{
						"POSITION":0,
						"NORMAL":1,
						"TEXCOORD_0":2,
						"COLOR_0":3,
						"COLOR_1":4
					},
					"indices":5,
					"material":0
				}
			]
		},
		{
			"name":"Plane.001",
			"primitives":[
				{
					"attributes":{
						"POSITION":6,
						"NORMAL":7,
						"TEXCOORD_0":8
					},
					"indices":9,
					"material":1
				}
			]
		},
		{
			"name":"Plane.002",
			"primitives":[
				{
					"attributes":{
						"POSITION":10,
						"NORMAL":11,
						"TEXCOORD_0":12
					},
					"indices":13
				}
			]
		}
	],
	"accessors":[
		{
			"bufferView":0,
			"componentType":5126,
			"count":27912,
			"max":[
				267.1210632324219,
				0.4838896691799164,
				67.76577758789062
			],
			"min":[
				-1,
				-2.7481391953187995e-05,
				-1
			],
			"type":"VEC3"
		},
		{
			"bufferView":1,
			"componentType":5126,
			"count":27912,
			"type":"VEC3"
		},
		{
			"bufferView":2,
			"componentType":5126,
			"count":27912,
			"type":"VEC2"
		},
		{
			"bufferView":3,
			"componentType":5121,
			"count":27912,
			"normalized":true,
			"type":"VEC4"
		},
		{
			"bufferView":4,
			"componentType":5126,
			"count":27912,
			"type":"VEC3"
		},
		{
			"bufferView":5,
			"componentType":5123,
			"count":101304,
			"type":"SCALAR"
		},
		{
			"bufferView":6,
			"componentType":5126,
			"count":26623,
			"max":[
				0.9920275807380676,
				0,
				18.792829513549805
			],
			"min":[
				-11.194300651550293,
				0,
				-0.9173656105995178
			],
			"type":"VEC3"
		},
		{
			"bufferView":7,
			"componentType":5126,
			"count":26623,
			"type":"VEC3"
		},
		{
			"bufferView":8,
			"componentType":5126,
			"count":26623,
			"type":"VEC2"
		},
		{
			"bufferView":9,
			"componentType":5123,
			"count":156054,
			"type":"SCALAR"
		},
		{
			"bufferView":10,
			"componentType":5126,
			"count":20,
			"max":[
				9.93238639831543,
				0,
				2.2037229537963867
			],
			"min":[
				-1.0157580375671387,
				0,
				-1
			],
			"type":"VEC3"
		},
		{
			"bufferView":11,
			"componentType":5126,
			"count":20,
			"type":"VEC3"
		},
		{
			"bufferView":12,
			"componentType":5126,
			"count":20,
			"type":"VEC2"
		},
		{
			"bufferView":13,
			"componentType":5123,
			"count":54,
			"type":"SCALAR"
		}
	],
	"bufferViews":[
		{
			"buffer":0,
			"byteLength":334944,
			"byteOffset":0,
			"target":34962
		},
		{
			"buffer":0,
			"byteLength":334944,
			"byteOffset":334944,
			"target":34962
		},
		{
			"buffer":0,
			"byteLength":223296,
			"byteOffset":669888,
			"target":34962
		},
		{
			"buffer":0,
			"byteLength":111648,
			"byteOffset":893184,
			"target":34962
		},
		{
			"buffer":0,
			"byteLength":334944,
			"byteOffset":1004832,
			"target":34962
		},
		{
			"buffer":0,
			"byteLength":202608,
			"byteOffset":1339776,
			"target":34963
		},
		{
			"buffer":0,
			"byteLength":319476,
			"byteOffset":1542384,
			"target":34962
		},
		{
			"buffer":0,
			"byteLength":319476,
			"byteOffset":1861860,
			"target":34962
		},
		{
			"buffer":0,
			"byteLength":212984,
			"byteOffset":2181336,
			"target":34962
		},
		{
			"buffer":0,
			"byteLength":312108,
			"byteOffset":2394320,
			"target":34963
		},
		{
			"buffer":0,
			"byteLength":240,
			"byteOffset":2706428,
			"target":34962
		},
		{
			"buffer":0,
			"byteLength":240,
			"byteOffset":2706668,
			"target":34962
		},
		{
			"buffer":0,
			"byteLength":160,
			"byteOffset":2706908,
			"target":34962
		},
		{
			"buffer":0,
			"byteLength":108,
			"byteOffset":2707068,
			"target":34963
		}
	],
	"buffers":[
		{
			"byteLength":2707176,
			"uri":"factory_model.bin"
		}
	]
}
